<svg width="86" height="100" viewBox="0 0 86 100" fill="none" xmlns="http://www.w3.org/2000/svg">
<g clip-path="url(#clip0_234_1759)">
<path d="M54.0425 32.1493C53.1893 29.6115 51.9705 26.0975 48.7772 25.9999C44.4626 25.8779 42.9025 31.0024 42.4393 36.0048C41.8543 34.9799 41.2205 34.0038 40.5136 33.0766C38.9535 31.1 36.1258 27.9033 33.2738 29.0014C30.1536 30.2215 30.5192 34.9555 30.7874 37.6154C30.8849 38.567 31.0555 39.5187 31.2749 40.446C30.2511 39.6651 29.2029 38.9575 28.1304 38.2742C26.0096 36.9565 22.8163 34.7115 20.6955 37.2493C15.6496 43.3255 27.009 52.4519 30.8118 55.6241C32.3231 56.8687 34.4195 55.0629 33.6394 53.672L52.5068 45.0336C53.1406 46.4977 55.7732 46.2537 55.7976 44.3015C55.9195 40.1532 55.3101 36.0536 54.0425 32.1493Z" fill="#FF3A00"/>
<path d="M0.585033 126H71.7398C72.7392 117.118 71.7398 108.235 70.521 99.426C69.034 88.7378 67.4739 78.0985 68.1321 67.264C68.4246 62.2859 69.3265 56.9418 72.2517 52.7447C75.4206 48.3035 80.3203 45.546 85.0981 43.2766C85.8294 42.9838 86.1706 42.1541 85.8781 41.4221C85.805 40.7632 85.3175 40.2264 84.6837 40.1044C52.7749 31.8808 18.2336 47.3762 5.24093 78.0985C1.95011 85.7608 0.170634 93.9843 -8.81497e-07 102.33C-0.0975066 110.212 1.02381 118.118 0.585033 126Z" fill="#FFB400"/>
<path d="M63.0618 91.2757C63.0374 90.324 62.2574 89.5432 61.3067 89.5676C61.1604 89.5676 61.0386 89.592 60.8923 89.6164L59.5272 89.9336C58.6009 90.1776 58.089 91.1293 58.3328 92.0566C58.5278 92.6666 59.0397 93.1547 59.6735 93.2767V93.7159C59.6735 94.6676 60.4535 95.4241 61.4042 95.4241C62.3549 95.4241 63.1105 94.6432 63.1105 93.7159L63.0618 91.2757Z" fill="#FF3A00"/>
<path d="M55.7732 54.3309C55.7732 54.2821 55.7001 54.2577 55.6757 54.2089C55.627 54.1357 55.5782 54.0625 55.5051 53.9893C45.9252 43.2767 28.2523 57.6496 35.1995 69.6554C38.6366 75.634 46.8027 76.4636 52.2387 72.7301C57.9915 68.7282 59.771 60.1142 55.7732 54.3309Z" fill="white"/>
<path d="M53.3844 59.7969L53.36 59.7237C53.3356 59.6017 53.2869 59.4797 53.2137 59.3821C51.6537 56.2098 47.9728 54.7213 44.6576 55.8926C41.3181 57.1127 38.5879 61.4319 39.6605 64.9946C40.8061 68.8501 45.7546 70.3875 49.2891 69.1186C52.97 67.7032 54.8226 63.5061 53.3844 59.7969Z" fill="#04294F"/>
<path d="M85.9025 41.4221C85.8294 40.7876 85.3418 40.2507 84.708 40.1043C80.2472 38.9818 75.6888 38.2742 71.106 38.0302C70.1553 38.0302 69.3997 38.811 69.3997 39.7627C69.7897 43.1546 70.716 46.4489 72.0811 49.5724C72.5442 50.6461 74.0555 50.5973 74.7868 49.914C77.8826 47.2054 81.3685 44.9604 85.1468 43.2766C85.8537 42.9838 86.195 42.1541 85.9025 41.4221Z" fill="#FF3A00"/>
<path d="M21.2075 42.5202L23.1332 45.6681C23.7914 46.7173 25.1565 47.059 26.2047 46.4001C27.2285 45.7657 27.5697 44.4479 26.9847 43.3987L25.059 40.2508C24.4008 39.2015 23.0357 38.8599 21.9875 39.5187C20.9637 40.1532 20.6225 41.4709 21.2075 42.5202Z" fill="#FF8966"/>
<path d="M32.4694 33.5158C32.4694 35.4924 32.8838 37.4445 33.7126 39.2259C34.2001 40.324 35.8089 40.5924 36.784 40.0312C37.8322 39.3967 38.1734 38.0302 37.5884 36.9565C37.1253 35.8584 36.9302 34.6871 36.9546 33.5158C36.979 30.6607 32.5181 30.6607 32.4694 33.5158Z" fill="#FF8966"/>
<path d="M45.3401 31.222V34.8824C45.3157 36.0781 46.2664 37.0786 47.4609 37.1274C48.6553 37.103 49.606 36.1025 49.5816 34.8824V31.222C49.606 30.0263 48.6553 29.0259 47.4609 28.9771C46.242 29.0259 45.2914 30.0263 45.3401 31.222Z" fill="#FF8966"/>
<path d="M29.5199 54.1356C19.6718 59.2845 12.5051 68.4109 9.84809 79.1966C9.16555 82.0029 13.4558 83.1742 14.1627 80.3923C16.5272 70.7291 22.9382 62.5543 31.7869 57.9911C34.322 56.6734 32.0794 52.7935 29.5199 54.1356Z" fill="#FFC333"/>
<path d="M54.53 47.1078L62.3305 44.8629C65.085 44.0576 63.915 39.7384 61.136 40.5437L53.3356 42.7887C50.6054 43.5939 51.7511 47.9131 54.53 47.1078Z" fill="#FFC333"/>
</g>
<defs>
<clipPath id="clip0_234_1759">
<rect width="86" height="100" fill="white"/>
</clipPath>
</defs>
</svg>
