<svg width="86" height="100" viewBox="0 0 86 100" fill="none" xmlns="http://www.w3.org/2000/svg">
<path d="M54.0425 6.14928C53.1893 3.61146 51.9705 0.0975479 48.7772 -6.06547e-05C44.4626 -0.122071 42.9025 5.00238 42.4393 10.0048C41.8543 8.97993 41.2205 8.00384 40.5136 7.07656C38.9535 5.09999 36.1258 1.90331 33.2738 3.0014C30.1536 4.22151 30.5192 8.95553 30.7874 11.6154C30.8849 12.567 31.0555 13.5187 31.2749 14.446C30.2511 13.6651 29.2029 12.9575 28.1304 12.2742C26.0096 10.9565 22.8163 8.71151 20.6955 11.2493C15.6496 17.3255 27.009 26.4519 30.8118 29.6241C32.3231 30.8687 34.4195 29.0629 33.6394 27.672L52.5068 19.0336C53.1406 20.4977 55.7732 20.2537 55.7976 18.3015C55.9195 14.1532 55.3101 10.0536 54.0425 6.14928Z" fill="#FF3A00"/>
<path d="M0.585033 99.9999H71.7398C72.7392 91.1175 71.7398 82.2352 70.521 73.426C69.034 62.7378 67.4739 52.0985 68.1321 41.264C68.4246 36.2859 69.3265 30.9418 72.2517 26.7447C75.4206 22.3035 80.3203 19.546 85.0981 17.2766C85.8294 16.9838 86.1706 16.1541 85.8781 15.4221C85.805 14.7632 85.3175 14.2264 84.6837 14.1044C52.7749 5.88084 18.2336 21.3762 5.24093 52.0985C1.95011 59.7608 0.170634 67.9843 -8.81497e-07 76.3298C-0.0975066 84.2117 1.02381 92.118 0.585033 99.9999Z" fill="#FFB400"/>
<path d="M62.7205 77.0375L63.1105 81.8691C63.1349 82.8208 63.8906 83.5773 64.8169 83.5773C65.7676 83.5773 66.5232 82.7964 66.5232 81.8691L66.1332 77.0375C66.1088 76.0858 65.3532 75.3293 64.4269 75.3293C63.4762 75.3293 62.7205 76.0858 62.7205 77.0375Z" fill="#FF3A00"/>
<path d="M65.4995 92.1668C65.5482 93.6554 65.3532 95.1195 64.8901 96.5348C64.2075 98.6578 67.5471 99.5607 68.2052 97.4621C68.7415 95.754 68.9853 93.9726 68.9365 92.1912C68.8634 89.9706 65.4263 89.9463 65.4995 92.1668Z" fill="#FF3A00"/>
<path d="M60.3316 86.3103V84.2361C60.3316 83.2844 59.5516 82.528 58.6009 82.528C57.6502 82.528 56.8702 83.3088 56.8702 84.2361V86.3103C56.8702 87.262 57.6502 88.0184 58.6009 88.0184C59.5516 88.0428 60.3316 87.262 60.3316 86.3103Z" fill="#FF3A00"/>
<path d="M63.0618 65.2757C63.0374 64.324 62.2574 63.5432 61.3067 63.5676C61.1604 63.5676 61.0386 63.592 60.8923 63.6164L59.5272 63.9336C58.6009 64.1776 58.089 65.1293 58.3328 66.0566C58.5278 66.6666 59.0397 67.1547 59.6735 67.2767V67.7159C59.6735 68.6676 60.4535 69.4241 61.4042 69.4241C62.3549 69.4241 63.1105 68.6432 63.1105 67.7159L63.0618 65.2757Z" fill="#FF3A00"/>
<path d="M51.093 90.6783L50.7517 93.0942C50.5323 94.0214 51.0442 94.9487 51.9461 95.2171C52.7506 95.4124 53.9206 94.9731 54.0669 94.0214L54.4082 91.6056C54.6275 90.6783 54.1156 89.7511 53.2137 89.4826C52.4093 89.2874 51.2392 89.7267 51.093 90.6783Z" fill="#FF3A00"/>
<path d="M55.7732 28.3309C55.7732 28.2821 55.7001 28.2577 55.6757 28.2089C55.627 28.1357 55.5782 28.0625 55.5051 27.9893C45.9252 17.2767 28.2523 31.6496 35.1995 43.6554C38.6366 49.634 46.8027 50.4636 52.2387 46.7301C57.9915 42.7282 59.771 34.1142 55.7732 28.3309Z" fill="white"/>
<path d="M53.4935 36.306L53.4682 36.3008C53.4429 36.2921 53.3922 36.2834 53.3163 36.2765C51.6967 36.0509 47.8754 35.945 44.4337 36.0283C40.9666 36.1151 38.1323 36.4223 39.2458 36.6757C40.4352 36.9499 45.5725 37.0592 49.2419 36.969C53.0633 36.8683 54.9866 36.5698 53.4935 36.306Z" fill="#04294F"/>
<path d="M85.9025 15.4221C85.8294 14.7876 85.3418 14.2507 84.708 14.1043C80.2472 12.9818 75.6888 12.2742 71.106 12.0302C70.1553 12.0302 69.3997 12.811 69.3997 13.7627C69.7897 17.1546 70.716 20.4489 72.0811 23.5724C72.5442 24.6461 74.0555 24.5973 74.7868 23.914C77.8826 21.2054 81.3685 18.9604 85.1468 17.2766C85.8537 16.9838 86.195 16.1541 85.9025 15.4221Z" fill="#FF3A00"/>
<path d="M21.2075 16.5202L23.1332 19.6681C23.7914 20.7173 25.1565 21.059 26.2047 20.4001C27.2285 19.7657 27.5697 18.4479 26.9847 17.3987L25.059 14.2508C24.4008 13.2015 23.0357 12.8599 21.9875 13.5187C20.9637 14.1532 20.6225 15.4709 21.2075 16.5202Z" fill="#FF8966"/>
<path d="M32.4694 7.5158C32.4694 9.49237 32.8838 11.4445 33.7126 13.2259C34.2001 14.324 35.8089 14.5924 36.784 14.0312C37.8322 13.3967 38.1734 12.0302 37.5884 10.9565C37.1253 9.85841 36.9302 8.6871 36.9546 7.5158C36.979 4.66075 32.5181 4.66075 32.4694 7.5158Z" fill="#FF8966"/>
<path d="M45.3401 5.22205V8.88237C45.3157 10.0781 46.2664 11.0786 47.4609 11.1274C48.6553 11.103 49.606 10.1025 49.5816 8.88237V5.22205C49.606 4.02634 48.6553 3.02586 47.4609 2.97705C46.242 3.02586 45.2914 4.02634 45.3401 5.22205Z" fill="#FF8966"/>
<path d="M29.5199 28.1356C19.6718 33.2845 12.5051 42.4109 9.84809 53.1966C9.16555 56.0029 13.4558 57.1742 14.1627 54.3923C16.5272 44.7291 22.9382 36.5543 31.7869 31.9911C34.322 30.6734 32.0794 26.7935 29.5199 28.1356Z" fill="#FFC333"/>
<path d="M54.53 21.1078L62.3305 18.8629C65.085 18.0576 63.915 13.7384 61.136 14.5437L53.3356 16.7887C50.6054 17.5939 51.7511 21.9131 54.53 21.1078Z" fill="#FFC333"/>
<path d="M4.16837 98.4138C4.21712 98.9506 4.26587 99.4631 4.29025 99.9999H8.72676C8.70238 99.4631 8.65363 98.9506 8.60488 98.4138C8.33673 95.5831 3.85147 95.5587 4.16837 98.4138Z" fill="#FFC333"/>
</svg>
