<svg width="181" height="74" viewBox="0 0 181 74" fill="none" xmlns="http://www.w3.org/2000/svg">
<mask id="mask0_530_605" style="mask-type:alpha" maskUnits="userSpaceOnUse" x="0" y="0" width="181" height="74">
<path d="M80.8539 68.5956C100.395 68.127 122.096 66.4403 143.422 61.3799C150.092 59.7868 156.574 57.9127 162.681 54.8202C165.405 53.4146 168.129 51.8215 170.572 49.9473C172.357 48.5417 173.86 46.6675 174.987 44.6996C177.712 40.0141 176.96 35.2349 172.827 31.7676C170.384 29.706 167.66 28.0192 164.747 26.6136C156.48 22.4903 147.649 19.7727 138.724 17.6174C131.303 15.8369 123.693 15.0872 116.084 14.6187C115.144 14.525 114.205 14.6187 113.453 14.2438C112.795 13.9627 112.044 13.1193 112.044 12.5571C112.138 11.8074 112.889 11.0577 113.547 10.6829C114.205 10.308 115.144 10.4955 115.896 10.4955C128.296 10.4017 140.228 12.8382 151.783 16.8677C157.42 18.8356 162.962 21.1784 168.411 23.7085C171.23 25.0205 173.954 26.9884 176.209 29.1437C181.094 33.7355 182.127 39.8267 179.309 45.9178C177.9 49.1039 175.645 51.6341 173.015 53.7894C168.223 57.6315 162.775 60.068 157.138 62.0359C146.146 65.878 134.779 68.127 123.223 69.7201C109.507 71.688 95.7912 72.7188 81.8873 72.9999C65.3528 73.2811 48.8184 72.4377 32.6597 68.5956C26.1775 67.0962 19.977 64.8472 14.2463 61.4736C10.4885 59.2246 7.10647 56.6944 4.47599 53.1335C0.248433 47.4172 -0.221296 41.4197 2.97286 35.0474C4.75783 31.4865 7.29436 28.5815 10.2067 25.9576C17.9102 19.0231 26.929 14.3376 36.5115 10.5892C49.0063 5.71625 62.0647 3.09237 75.3111 1.49931C92.3152 -0.56231 109.319 -0.281181 126.324 1.59302C140.979 3.18608 155.447 5.90367 169.351 11.1514C171.136 11.8074 172.827 12.6508 174.518 13.4942C175.739 14.0564 176.491 14.8998 176.021 16.3055C175.645 17.3363 174.424 17.7111 172.921 16.9614C164.184 13.0256 154.883 11.0577 145.582 9.08981C134.685 6.84077 123.599 5.62254 112.514 4.87286C92.785 3.65463 73.2443 5.15399 54.0793 9.83949C43.7453 12.1822 33.7871 15.8369 24.4864 21.1784C19.6952 23.896 15.1858 27.0821 11.334 31.1116C9.92484 32.611 8.6096 34.2978 7.48225 36.0783C4.10021 41.6071 4.66388 47.136 9.17328 51.7278C11.428 54.0706 14.1524 56.0385 16.9708 57.8189C23.1712 61.6611 30.1232 63.629 37.263 65.0346C50.7912 67.7522 64.6012 68.6893 80.8539 68.5956Z"
      fill="white"/>
</mask>
<g mask="url(#mask0_530_605)">
<rect y="-15" width="188" height="104" fill="white"/>
<path d="M160.5 38.9999C159.5 38.9999 159.486 39.6163 157.5 38.9999C155.021 38.2306 155.041 39.508 152.5 38.9999C148.412 38.1823 151.5 41.6356 147.367 40.9999C144.793 40.6038 138.09 35.9532 135.5 35.4999C132.802 35.0278 133.594 29.5371 130.908 28.9999C125.696 27.9575 121.846 27.9999 116.5 27.9999C114.5 34.9999 112.53 19.4999 110.5 19.4999C107.438 19.4999 102.206 40.2118 101 19.4999C97.5305 19.7569 97.2602 16.9999 94 16.9999C89.3982 16.9999 84.4243 13.7127 80 14.8838C74.4913 16.342 71.8444 17.7994 66.5 19.4999C64.7761 20.0484 58.8312 16.7557 57 16.9999C54.0292 17.396 54.3459 18.6012 51.5 19.4999C48.8488 20.3371 48.1614 18.7283 45.5158 19.4999C42.772 20.3001 39.1529 24.9388 36.5 25.9999C33.3506 27.2597 31.6071 24.7376 28.5 25.9999C25.529 27.2069 27.1265 30.1942 24.5 31.9999C21.0586 34.3659 19.1664 29.6908 17.4999 33.4999C16.1198 36.6544 17.8374 37.6254 17.4999 40.9999C17.1152 44.8474 23.0395 40.7658 25.4999 43.5338C27.0664 45.2961 30.0164 45.9089 32 46.9999C34.0095 48.1051 35.146 41.528 29.695 51.9999C34.8082 54.5565 37.0084 53.3937 42.5 54.1259C67.1833 57.417 79.0321 56.5038 104 54.1259C111.197 53.4405 114.328 54.9341 121.5 54.1259C129.606 53.2126 127.583 58.1028 135.5 55.9999C140.89 54.5681 144.086 56.7244 147.367 51.9999C148.577 50.2584 139.663 52.2159 149 50.4999C128.663 47.7159 145.218 45.4999 160.5 45.4999C162.694 43.1766 162.349 46.9711 161.5 43.9999C160.611 40.8867 166.676 41.8499 165 38.9999C163.428 36.327 163.165 36.4915 160.5 35.4999C157.233 34.2843 155.778 32.4711 152.5 31.3784C135.505 39.5179 133.063 24.9999 118.5 24.9999" stroke="#FFB400" stroke-width="10" stroke-linecap="round"/>
</g>
</svg>
