<svg width="262" height="140" viewBox="0 0 262 140" fill="none" xmlns="http://www.w3.org/2000/svg">
<g clip-path="url(#clip0_234_1760)">
<path d="M74.0425 52.1493C73.1893 49.6115 71.9705 46.0975 68.7772 45.9999C64.4626 45.8779 62.9025 51.0024 62.4393 56.0048C61.8543 54.9799 61.2205 54.0038 60.5136 53.0766C58.9535 51.1 56.1258 47.9033 53.2738 49.0014C50.1536 50.2215 50.5192 54.9555 50.7874 57.6154C50.8849 58.567 51.0555 59.5187 51.2749 60.446C50.2511 59.6651 49.2029 58.9575 48.1304 58.2742C46.0096 56.9565 42.8163 54.7115 40.6955 57.2493C35.6496 63.3255 47.009 72.4519 50.8118 75.6241C52.3231 76.8687 54.4195 75.0629 53.6394 73.672L72.5068 65.0336C73.1406 66.4977 75.7732 66.2537 75.7976 64.3016C75.9195 60.1532 75.3101 56.0536 74.0425 52.1493Z" fill="#FF3A00"/>
<path d="M20.585 146H91.7398C92.7392 137.118 91.7398 128.235 90.521 119.426C89.034 108.738 87.4739 98.0985 88.1321 87.264C88.4246 82.2859 89.3265 76.9418 92.2517 72.7447C95.4206 68.3035 100.32 65.546 105.098 63.2766C105.829 62.9838 106.171 62.1541 105.878 61.4221C105.805 60.7632 105.317 60.2264 104.684 60.1044C72.7749 51.8808 38.2336 67.3762 25.2409 98.0985C21.9501 105.761 20.1706 113.984 20 122.33C19.9025 130.212 21.0238 138.118 20.585 146Z" fill="#FFB400"/>
<path d="M83.0618 111.276C83.0374 110.324 82.2574 109.543 81.3067 109.568C81.1604 109.568 81.0386 109.592 80.8923 109.616L79.5272 109.934C78.6009 110.178 78.089 111.129 78.3328 112.057C78.5278 112.667 79.0397 113.155 79.6735 113.277V113.716C79.6735 114.668 80.4535 115.424 81.4042 115.424C82.3549 115.424 83.1105 114.643 83.1105 113.716L83.0618 111.276Z" fill="#FF3A00"/>
<path d="M75.7732 74.3309C75.7732 74.2821 75.7001 74.2577 75.6757 74.2089C75.627 74.1357 75.5782 74.0625 75.5051 73.9893C65.9252 63.2767 48.2523 77.6496 55.1995 89.6554C58.6366 95.634 66.8027 96.4636 72.2387 92.7301C77.9915 88.7282 79.771 80.1142 75.7732 74.3309Z" fill="white"/>
<path d="M73.3844 79.7969L73.36 79.7237C73.3356 79.6017 73.2869 79.4797 73.2137 79.3821C71.6537 76.2098 67.9728 74.7213 64.6576 75.8926C61.3181 77.1127 58.5879 81.4319 59.6605 84.9946C60.8061 88.8501 65.7546 90.3875 69.2891 89.1186C72.97 87.7032 74.8226 83.5061 73.3844 79.7969Z" fill="#04294F"/>
<path d="M105.902 61.4221C105.829 60.7876 105.342 60.2507 104.708 60.1043C100.247 58.9818 95.6888 58.2742 91.106 58.0302C90.1553 58.0302 89.3997 58.811 89.3997 59.7627C89.7897 63.1546 90.716 66.4489 92.0811 69.5724C92.5442 70.6461 94.0555 70.5973 94.7868 69.914C97.8826 67.2054 101.368 64.9604 105.147 63.2766C105.854 62.9838 106.195 62.1541 105.902 61.4221Z" fill="#FF3A00"/>
<path d="M41.2075 62.5202L43.1332 65.6681C43.7914 66.7173 45.1565 67.059 46.2047 66.4001C47.2285 65.7657 47.5697 64.4479 46.9847 63.3987L45.059 60.2508C44.4008 59.2015 43.0357 58.8599 41.9875 59.5187C40.9637 60.1532 40.6225 61.4709 41.2075 62.5202Z" fill="#FF8966"/>
<path d="M52.4694 53.5158C52.4694 55.4924 52.8838 57.4445 53.7126 59.2259C54.2001 60.324 55.8089 60.5924 56.784 60.0312C57.8322 59.3967 58.1734 58.0302 57.5884 56.9565C57.1253 55.8584 56.9302 54.6871 56.9546 53.5158C56.979 50.6607 52.5181 50.6607 52.4694 53.5158Z" fill="#FF8966"/>
<path d="M65.3401 51.222V54.8824C65.3157 56.0781 66.2664 57.0786 67.4609 57.1274C68.6553 57.103 69.606 56.1025 69.5816 54.8824V51.222C69.606 50.0263 68.6553 49.0259 67.4609 48.9771C66.242 49.0259 65.2914 50.0263 65.3401 51.222Z" fill="#FF8966"/>
<path d="M49.5199 74.1356C39.6718 79.2845 32.5051 88.4109 29.8481 99.1966C29.1655 102.003 33.4558 103.174 34.1627 100.392C36.5272 90.7291 42.9382 82.5543 51.7869 77.9911C54.322 76.6734 52.0794 72.7935 49.5199 74.1356Z" fill="#FFC333"/>
<path d="M74.53 67.1078L82.3305 64.8629C85.085 64.0576 83.915 59.7384 81.136 60.5437L73.3356 62.7887C70.6054 63.5939 71.7511 67.9131 74.53 67.1078Z" fill="#FFC333"/>
</g>
<g clip-path="url(#clip1_234_1760)">
<path d="M205.042 29.1493C204.189 26.6115 202.97 23.0975 199.777 22.9999C195.463 22.8779 193.902 28.0024 193.439 33.0048C192.854 31.9799 192.22 31.0038 191.514 30.0766C189.953 28.1 187.126 24.9033 184.274 26.0014C181.154 27.2215 181.519 31.9555 181.787 34.6154C181.885 35.567 182.056 36.5187 182.275 37.446C181.251 36.6651 180.203 35.9575 179.13 35.2742C177.01 33.9565 173.816 31.7115 171.696 34.2493C166.65 40.3255 178.009 49.4519 181.812 52.6241C183.323 53.8687 185.419 52.0629 184.639 50.672L203.507 42.0336C204.141 43.4977 206.773 43.2537 206.798 41.3015C206.919 37.1532 206.31 33.0536 205.042 29.1493Z" fill="#FF3A00"/>
<path d="M151.585 123H222.74C223.739 114.118 222.74 105.235 221.521 96.426C220.034 85.7378 218.474 75.0985 219.132 64.264C219.425 59.2859 220.327 53.9418 223.252 49.7447C226.421 45.3035 231.32 42.546 236.098 40.2766C236.829 39.9838 237.171 39.1541 236.878 38.4221C236.805 37.7632 236.317 37.2264 235.684 37.1044C203.775 28.8808 169.234 44.3762 156.241 75.0985C152.95 82.7608 151.171 90.9843 151 99.3298C150.902 107.212 152.024 115.118 151.585 123Z" fill="#FFB400"/>
<path d="M213.721 100.037L214.111 104.869C214.135 105.821 214.891 106.577 215.817 106.577C216.768 106.577 217.523 105.796 217.523 104.869L217.133 100.037C217.109 99.0858 216.353 98.3293 215.427 98.3293C214.476 98.3293 213.721 99.0858 213.721 100.037Z" fill="#FF3A00"/>
<path d="M216.499 115.167C216.548 116.655 216.353 118.12 215.89 119.535C215.208 121.658 218.547 122.561 219.205 120.462C219.742 118.754 219.985 116.973 219.937 115.191C219.863 112.971 216.426 112.946 216.499 115.167Z" fill="#FF3A00"/>
<path d="M211.332 109.31V107.236C211.332 106.284 210.552 105.528 209.601 105.528C208.65 105.528 207.87 106.309 207.87 107.236V109.31C207.87 110.262 208.65 111.018 209.601 111.018C210.552 111.043 211.332 110.262 211.332 109.31Z" fill="#FF3A00"/>
<path d="M214.062 88.2757C214.037 87.324 213.257 86.5432 212.307 86.5676C212.16 86.5676 212.039 86.592 211.892 86.6164L210.527 86.9336C209.601 87.1776 209.089 88.1293 209.333 89.0566C209.528 89.6666 210.04 90.1547 210.673 90.2767V90.7159C210.673 91.6676 211.454 92.4241 212.404 92.4241C213.355 92.4241 214.111 91.6432 214.111 90.7159L214.062 88.2757Z" fill="#FF3A00"/>
<path d="M202.093 113.678L201.752 116.094C201.532 117.021 202.044 117.949 202.946 118.217C203.751 118.412 204.921 117.973 205.067 117.021L205.408 114.606C205.628 113.678 205.116 112.751 204.214 112.483C203.409 112.287 202.239 112.727 202.093 113.678Z" fill="#FF3A00"/>
<path d="M206.773 51.3309C206.773 51.2821 206.7 51.2577 206.676 51.2089C206.627 51.1357 206.578 51.0625 206.505 50.9893C196.925 40.2767 179.252 54.6496 186.2 66.6554C189.637 72.634 197.803 73.4636 203.239 69.7301C208.991 65.7282 210.771 57.1142 206.773 51.3309Z" fill="white"/>
<path d="M204.493 59.306L204.468 59.3008C204.443 59.2921 204.392 59.2834 204.316 59.2765C202.697 59.0509 198.875 58.945 195.434 59.0283C191.967 59.1151 189.132 59.4223 190.246 59.6757C191.435 59.9499 196.572 60.0592 200.242 59.969C204.063 59.8683 205.987 59.5698 204.493 59.306Z" fill="#04294F"/>
<path d="M236.902 38.4221C236.829 37.7876 236.342 37.2507 235.708 37.1043C231.247 35.9818 226.689 35.2742 222.106 35.0302C221.155 35.0302 220.4 35.811 220.4 36.7627C220.79 40.1546 221.716 43.4489 223.081 46.5724C223.544 47.6461 225.056 47.5973 225.787 46.914C228.883 44.2054 232.368 41.9604 236.147 40.2766C236.854 39.9838 237.195 39.1541 236.902 38.4221Z" fill="#FF3A00"/>
<path d="M172.208 39.5202L174.133 42.6681C174.791 43.7173 176.156 44.059 177.205 43.4001C178.228 42.7657 178.57 41.4479 177.985 40.3987L176.059 37.2508C175.401 36.2015 174.036 35.8599 172.988 36.5187C171.964 37.1532 171.622 38.4709 172.208 39.5202Z" fill="#FF8966"/>
<path d="M183.469 30.5158C183.469 32.4924 183.884 34.4445 184.713 36.2259C185.2 37.324 186.809 37.5924 187.784 37.0312C188.832 36.3967 189.173 35.0302 188.588 33.9565C188.125 32.8584 187.93 31.6871 187.955 30.5158C187.979 27.6607 183.518 27.6607 183.469 30.5158Z" fill="#FF8966"/>
<path d="M196.34 28.222V31.8824C196.316 33.0781 197.266 34.0786 198.461 34.1274C199.655 34.103 200.606 33.1025 200.582 31.8824V28.222C200.606 27.0263 199.655 26.0259 198.461 25.9771C197.242 26.0259 196.291 27.0263 196.34 28.222Z" fill="#FF8966"/>
<path d="M180.52 51.1356C170.672 56.2845 163.505 65.4109 160.848 76.1966C160.166 79.0029 164.456 80.1742 165.163 77.3923C167.527 67.7291 173.938 59.5543 182.787 54.9911C185.322 53.6734 183.079 49.7935 180.52 51.1356Z" fill="#FFC333"/>
<path d="M205.53 44.1078L213.33 41.8629C216.085 41.0576 214.915 36.7384 212.136 37.5437L204.336 39.7887C201.605 40.5939 202.751 44.9131 205.53 44.1078Z" fill="#FFC333"/>
<path d="M155.168 121.414C155.217 121.951 155.266 122.463 155.29 123H159.727C159.702 122.463 159.654 121.951 159.605 121.414C159.337 118.583 154.851 118.559 155.168 121.414Z" fill="#FFC333"/>
</g>
<rect x="0.5" y="0.5" width="261" height="139" rx="4.5" stroke="#9747FF" stroke-dasharray="10 5"/>
<defs>
<clipPath id="clip0_234_1760">
<rect width="86" height="100" fill="white" transform="translate(20 20)"/>
</clipPath>
<clipPath id="clip1_234_1760">
<rect width="86" height="100" fill="white" transform="translate(151 23)"/>
</clipPath>
</defs>
</svg>
