<svg width="624" height="563" viewBox="0 0 624 563" fill="none" xmlns="http://www.w3.org/2000/svg">
<path d="M201.287 95.8501C199.387 91.14 196.695 84.6209 190.636 84.7982C182.423 85.0513 180.068 94.9421 179.756 104.424C178.556 102.553 177.221 100.771 175.763 99.0932C172.595 95.5303 166.863 89.7801 161.567 92.1994C155.771 94.8445 157.023 103.776 157.816 108.761C158.115 110.552 158.531 112.322 159.06 114.059C157.056 112.714 154.981 111.452 152.858 110.311C148.709 108.074 142.38 104.15 138.665 109.207C129.804 121.249 152.327 137.268 159.917 142.816C162.926 145.016 166.712 141.366 165.068 138.798L199.852 120.322C201.215 123.012 206.195 122.258 206.027 118.582C205.749 110.789 204.147 103.101 201.287 95.8462" fill="#FF3A00"/>
<path d="M140.2 119.18L144.192 124.942C144.828 125.851 145.794 126.475 146.885 126.68C147.975 126.885 149.103 126.656 150.026 126.04C150.949 125.424 151.594 124.472 151.823 123.387C152.052 122.302 151.846 121.17 151.25 120.235L147.258 114.473C146.623 113.564 145.656 112.94 144.565 112.735C143.475 112.53 142.347 112.76 141.424 113.375C140.501 113.991 139.856 114.943 139.627 116.028C139.398 117.113 139.604 118.245 140.2 119.18Z" fill="#FF8966"/>
<path d="M160.538 100.874C160.743 104.606 161.763 108.249 163.527 111.545C164.577 113.587 167.659 113.914 169.418 112.724C170.335 112.083 170.969 111.114 171.189 110.017C171.409 108.921 171.198 107.782 170.598 106.837C169.62 104.827 169.084 102.63 169.025 100.396C168.779 94.9466 160.306 95.4373 160.552 100.899L160.538 100.874Z" fill="#FF8966"/>
<path d="M184.681 95.0848L185.094 102.027C185.132 103.123 185.604 104.16 186.407 104.909C187.209 105.657 188.276 106.057 189.373 106.02C190.467 105.927 191.48 105.403 192.188 104.565C192.896 103.726 193.242 102.641 193.15 101.548L192.737 94.6058C192.699 93.5093 192.227 92.4729 191.424 91.7241C190.622 90.9753 189.555 90.5754 188.457 90.6122C187.363 90.7057 186.351 91.2292 185.643 92.0678C184.935 92.9064 184.589 93.9915 184.681 95.0848Z" fill="#FF8966"/>
<path d="M262.509 110.649C262.406 110.048 262.115 109.496 261.679 109.071C261.242 108.646 260.682 108.37 260.079 108.283C198.66 96.316 134.902 129.529 113.735 189.136C108.346 204.003 105.898 219.774 106.529 235.574C107.289 251.854 110.798 267.997 110.253 284.315C109.256 314.437 87.081 346.485 56.6627 353.222C46.4126 355.491 27.6107 352.139 21.8284 363.789C19.4932 368.516 21.4715 374.045 25.1043 377.501C26.7262 379.013 28.6324 380.188 30.7123 380.958C29.7503 381.729 28.9522 382.684 28.3651 383.767C27.778 384.85 27.4138 386.04 27.2939 387.266C26.3468 396.197 34.9385 398.993 42.6368 399.346C42.2561 400.783 42.2157 402.289 42.519 403.745C43.759 409.618 50.0659 412.289 55.3393 413.439C68.9076 416.553 84.072 415.534 97.7228 413.677C126.142 409.83 154.68 399.833 178.333 383.395C202.711 366.544 222.024 343.364 234.192 316.354C240.324 302.81 244.03 288.295 245.142 273.471C246.245 256.165 243.28 239.062 239.906 222.153C235.899 202.079 231.718 182.12 231.752 161.558C231.762 152.081 232.832 141.888 237.938 133.611C243.422 124.854 252.445 119.089 261.234 114.24C261.879 113.932 262.376 113.381 262.615 112.708C262.855 112.035 262.817 111.294 262.511 110.648" fill="#FFB400"/>
<path d="M262.508 110.643C262.4 110.051 262.109 109.506 261.676 109.087C261.244 108.668 260.691 108.394 260.094 108.303C251.524 106.671 242.815 105.876 234.091 105.928C233.226 105.98 232.418 106.372 231.843 107.019C231.268 107.666 230.974 108.515 231.026 109.378C232.17 115.732 234.251 121.88 237.2 127.624C238.207 129.59 241.042 129.343 242.363 127.984C247.929 122.485 254.289 117.85 261.231 114.235C261.876 113.927 262.373 113.376 262.612 112.703C262.852 112.03 262.815 111.289 262.508 110.643Z" fill="#FF3A00"/>
<path d="M116.916 276.921C118.971 289.179 117.737 301.762 113.341 313.389C108.945 325.016 101.543 335.271 91.8895 343.109C87.6571 346.485 92.3149 353.541 96.6008 350.162C107.483 341.501 115.875 330.116 120.925 317.163C125.975 304.21 127.502 290.153 125.35 276.42C124.47 271.087 115.982 271.539 116.877 276.923L116.916 276.921Z" fill="#FFC333"/>
<path d="M37.6443 357.419C35.6131 357.579 33.6795 358.356 32.103 359.646C30.5266 360.936 29.3828 362.677 28.8251 364.636C28.5929 365.736 28.8063 366.883 29.4186 367.827C30.031 368.77 30.9924 369.433 32.0925 369.67C33.1912 369.874 34.3266 369.649 35.2641 369.041C36.2017 368.433 36.8699 367.489 37.1307 366.403C37.0555 366.656 36.8195 367.088 37.0787 366.628C37.1431 366.498 37.2146 366.372 37.2929 366.25C37.4119 366.05 37.3916 366.083 37.2319 366.345C36.818 366.644 37.2319 366.345 37.3821 366.231L37.5803 366.023L37.3067 366.262C37.4773 366.17 37.6374 366.059 37.7842 365.933C38.3629 365.545 37.5803 366.023 37.5803 366.023C37.5803 366.023 38.6662 365.828 37.8471 365.89C37.028 365.952 38.0674 365.877 38.1469 365.872C39.2705 365.805 40.3215 365.295 41.0687 364.454C41.816 363.613 42.1983 362.51 42.1315 361.387C42.0648 360.264 41.5544 359.214 40.7128 358.468C39.8711 357.721 38.767 357.339 37.6435 357.406L37.6443 357.419Z" fill="#FFC333"/>
<path d="M47.8383 377.964C45.809 377.65 43.7326 377.888 41.8266 378.651C39.9206 379.415 38.2552 380.677 37.005 382.305C36.2871 383.16 35.9241 384.257 35.9903 385.371C36.0566 386.485 36.5471 387.532 37.3612 388.296C38.9342 389.692 42.0152 389.81 43.3573 387.939C43.4538 387.803 44.46 386.684 43.925 387.148C44.1378 386.978 44.3599 386.821 44.5903 386.677C44.9878 386.453 45.062 386.404 44.8172 386.532C44.2965 386.773 46.2215 386.148 45.1606 386.368C45.3822 386.355 46.888 386.357 46.0731 386.314C47.172 386.521 48.3086 386.297 49.2468 385.689C50.185 385.081 50.8527 384.135 51.1112 383.047C51.4568 380.962 50.1993 378.292 47.8412 378.013L47.8383 377.964Z" fill="#FFC333"/>
<path d="M52.6492 393.516L51.0705 396.224C50.5664 397.229 50.48 398.392 50.8301 399.461C51.1803 400.529 51.9387 401.416 52.9402 401.929C53.9495 402.411 55.1061 402.486 56.1694 402.138C57.2327 401.79 58.1208 401.046 58.6488 400.06L60.2276 397.352C60.7314 396.347 60.8176 395.183 60.4674 394.115C60.1173 393.047 59.3591 392.16 58.3579 391.647C57.3486 391.164 56.1919 391.089 55.1287 391.437C54.0654 391.786 53.1773 392.53 52.6492 393.516Z" fill="#FFC333"/>
<path d="M157.053 141.053C148.112 146.417 140.415 153.62 134.472 162.183C128.529 170.746 124.476 180.474 122.582 190.721C121.593 196.086 129.886 197.854 130.888 192.488C132.558 183.314 136.178 174.605 141.505 166.948C146.832 159.292 153.742 152.867 161.766 148.107C166.453 145.305 161.744 138.24 157.057 141.054" fill="#FFC333"/>
<path d="M203.697 124.936L218.239 119.81C223.364 117.989 220.675 109.953 215.499 111.777L200.957 116.916C195.833 118.737 198.522 126.773 203.698 124.949L203.697 124.936Z" fill="#FFC333"/>
<path d="M225.475 229.841L226.761 238.914C226.831 239.77 227.23 240.566 227.873 241.136C228.516 241.706 229.354 242.007 230.213 241.976C231.075 241.918 231.879 241.524 232.453 240.878C233.026 240.233 233.322 239.388 233.278 238.526L231.993 229.453C231.922 228.597 231.524 227.801 230.881 227.231C230.238 226.66 229.4 226.36 228.541 226.391C227.679 226.449 226.874 226.843 226.301 227.489C225.728 228.134 225.431 228.979 225.475 229.841" fill="#FF3A00"/>
<path d="M232.458 258.169C232.71 260.962 232.489 263.777 231.802 266.495C230.737 270.584 237.173 271.914 238.188 267.854C239.006 264.563 239.272 261.16 238.975 257.782C238.609 253.608 232.091 253.982 232.458 258.169Z" fill="#FF3A00"/>
<path d="M226.242 288.927C224.956 291.696 224.125 294.654 223.78 297.687C223.622 298.533 223.796 299.407 224.265 300.128C224.734 300.85 225.462 301.363 226.3 301.563C227.148 301.738 228.031 301.571 228.757 301.1C229.483 300.628 229.994 299.89 230.179 299.045C230.423 296.572 231.065 294.155 232.081 291.887C233.816 288.072 228.003 285.11 226.256 288.939L226.242 288.927Z" fill="#FF3A00"/>
<path d="M214.878 321.574L212.466 324.998C211.918 325.66 211.629 326.498 211.652 327.356C211.707 328.219 212.097 329.026 212.74 329.605C213.977 330.616 216.306 330.818 217.354 329.331L219.767 325.906C220.315 325.245 220.605 324.407 220.583 323.548C220.527 322.685 220.136 321.878 219.493 321.3C218.255 320.288 215.928 320.087 214.878 321.574Z" fill="#FF3A00"/>
<path d="M195.301 344.318L192.289 348.418C191.731 349.074 191.449 349.92 191.5 350.779C191.551 351.638 191.932 352.444 192.563 353.029C193.216 353.595 194.064 353.884 194.927 353.833C195.789 353.781 196.597 353.394 197.178 352.755L200.19 348.654C200.747 347.998 201.029 347.153 200.978 346.294C200.927 345.435 200.547 344.629 199.916 344.044C199.263 343.477 198.415 343.189 197.553 343.24C196.69 343.291 195.882 343.678 195.301 344.318Z" fill="#FF3A00"/>
<path d="M172.97 364.742L169.214 367.58C168.493 368.06 167.993 368.806 167.823 369.654C167.652 370.503 167.827 371.384 168.307 372.105C168.787 372.825 169.534 373.325 170.383 373.495C171.232 373.665 172.114 373.491 172.835 373.011L176.591 370.174C177.311 369.694 177.812 368.947 177.982 368.099C178.152 367.25 177.978 366.369 177.498 365.649C177.018 364.929 176.271 364.428 175.422 364.258C174.573 364.088 173.691 364.262 172.97 364.742Z" fill="#FF3A00"/>
<path d="M152.486 379.451L148.001 381.024C147.187 381.308 146.519 381.902 146.142 382.676C145.764 383.45 145.709 384.341 145.986 385.156C146.264 385.971 146.853 386.643 147.625 387.026C148.397 387.409 149.289 387.471 150.107 387.199L154.591 385.626C155.405 385.342 156.073 384.748 156.451 383.974C156.828 383.2 156.884 382.308 156.606 381.494C156.328 380.679 155.739 380.007 154.967 379.624C154.195 379.241 153.303 379.179 152.486 379.451Z" fill="#FF3A00"/>
<path d="M130.076 388.456L126.243 389.991C125.837 390.129 125.462 390.346 125.14 390.629C124.818 390.912 124.555 391.255 124.366 391.64C124.177 392.024 124.066 392.442 124.038 392.869C124.011 393.297 124.068 393.726 124.206 394.131C124.345 394.536 124.561 394.911 124.845 395.232C125.128 395.554 125.471 395.817 125.856 396.006C126.241 396.195 126.659 396.306 127.087 396.333C127.515 396.361 127.944 396.304 128.35 396.166L132.183 394.631C133.002 394.351 133.677 393.758 134.059 392.982C134.441 392.205 134.498 391.309 134.219 390.49C133.94 389.671 133.346 388.997 132.569 388.615C131.792 388.234 130.895 388.176 130.076 388.456Z" fill="#FF3A00"/>
<path d="M109.641 393.042L104.39 392.727C103.526 392.778 102.717 393.17 102.143 393.817C101.568 394.464 101.274 395.313 101.325 396.177C101.399 397.032 101.798 397.826 102.44 398.395C103.083 398.965 103.919 399.267 104.777 399.239L110.029 399.554C110.457 399.529 110.875 399.419 111.261 399.232C111.647 399.045 111.992 398.784 112.276 398.463C112.561 398.143 112.779 397.77 112.92 397.365C113.06 396.96 113.119 396.532 113.094 396.104C113.019 395.249 112.62 394.455 111.978 393.886C111.336 393.316 110.5 393.014 109.641 393.042Z" fill="#FF3A00"/>
<path d="M138.291 379.445C140.565 379.322 142.722 378.398 144.377 376.835C144.662 376.515 144.881 376.141 145.021 375.736C145.161 375.332 145.22 374.903 145.195 374.475C145.17 374.048 145.06 373.629 144.873 373.244C144.685 372.859 144.424 372.514 144.103 372.229C143.445 371.677 142.601 371.398 141.743 371.447C140.885 371.496 140.078 371.871 139.487 372.495C140.122 371.947 139.257 372.587 139.118 372.674C138.577 373.033 139.659 372.524 138.975 372.682L138.268 372.894C138.726 372.814 138.77 372.812 138.398 372.886L137.903 372.916C137.041 372.974 136.236 373.369 135.662 374.015C135.089 374.661 134.793 375.507 134.838 376.37C134.906 377.227 135.304 378.024 135.947 378.595C136.591 379.166 137.431 379.466 138.291 379.432L138.291 379.445Z" fill="#FF3A00"/>
<path d="M159.411 366.581L162.554 364.447C163.275 363.967 163.775 363.221 163.946 362.372C164.116 361.523 163.942 360.642 163.462 359.922C162.981 359.202 162.235 358.702 161.385 358.532C160.536 358.362 159.654 358.536 158.933 359.015L155.79 361.15C155.069 361.63 154.569 362.376 154.398 363.225C154.228 364.073 154.402 364.954 154.882 365.675C155.363 366.395 156.109 366.895 156.959 367.065C157.808 367.235 158.69 367.061 159.411 366.581Z" fill="#FF3A00"/>
<path d="M178.843 351.754L181.334 349.645C182.02 349.155 182.51 348.438 182.718 347.622C182.895 346.76 182.724 345.863 182.242 345.127C181.292 343.877 179.11 343.039 177.715 344.22L175.224 346.329C174.537 346.821 174.047 347.54 173.84 348.359C173.663 349.22 173.833 350.117 174.316 350.853C175.266 352.103 177.448 352.941 178.843 351.76" fill="#FF3A00"/>
<path d="M222.405 280.53L222.864 277.235C222.962 276.813 222.975 276.375 222.902 275.948C222.829 275.521 222.671 275.113 222.439 274.747C222.206 274.381 221.903 274.066 221.546 273.818C221.19 273.571 220.788 273.397 220.364 273.307C219.94 273.217 219.502 273.212 219.076 273.293C218.65 273.373 218.244 273.538 217.882 273.777C217.52 274.016 217.21 274.325 216.969 274.686C216.728 275.046 216.562 275.451 216.479 275.876L216.021 279.171C215.923 279.593 215.91 280.031 215.983 280.458C216.056 280.885 216.213 281.294 216.446 281.659C216.679 282.025 216.982 282.341 217.338 282.588C217.694 282.835 218.096 283.009 218.52 283.099C218.945 283.189 219.383 283.194 219.809 283.114C220.235 283.033 220.641 282.868 221.002 282.629C221.364 282.39 221.674 282.081 221.915 281.721C222.156 281.36 222.323 280.955 222.405 280.53Z" fill="#FF3A00"/>
<path d="M222.01 247.681L221.778 243.773C221.727 242.91 221.334 242.102 220.687 241.527C220.039 240.953 219.19 240.659 218.326 240.711C217.461 240.762 216.653 241.155 216.078 241.801C215.503 242.448 215.209 243.297 215.261 244.161L215.493 248.068C215.544 248.932 215.937 249.74 216.584 250.314C217.232 250.888 218.081 251.182 218.945 251.131C219.81 251.079 220.618 250.687 221.193 250.04C221.768 249.393 222.062 248.544 222.01 247.681Z" fill="#FF3A00"/>
<path d="M224.808 207.569C224.771 207.07 224.621 206.587 224.37 206.155C224.118 205.723 223.772 205.353 223.357 205.075C222.942 204.796 222.469 204.615 221.974 204.546C221.479 204.477 220.974 204.521 220.498 204.675L217.928 205.442C217.109 205.725 216.436 206.32 216.054 207.096C215.671 207.873 215.611 208.768 215.885 209.589C216.094 210.157 216.454 210.657 216.926 211.037C217.398 211.416 217.964 211.66 218.564 211.743L218.614 212.59C218.666 213.454 219.058 214.261 219.706 214.836C220.353 215.41 221.202 215.704 222.067 215.652C222.931 215.601 223.739 215.209 224.314 214.562C224.889 213.915 225.183 213.066 225.132 212.202L224.808 207.569Z" fill="#FF3A00"/>
<path d="M204.995 256.978L204.614 261.575C204.456 262.421 204.629 263.295 205.098 264.017C205.567 264.738 206.296 265.252 207.134 265.451C208.693 265.711 210.86 264.759 211.013 262.933L211.394 258.336C211.552 257.49 211.378 256.616 210.909 255.895C210.44 255.173 209.712 254.659 208.874 254.46C207.314 254.2 205.147 255.152 204.995 256.978Z" fill="#FF3A00"/>
<path d="M198.178 282.701L195.152 286.803C194.594 287.459 194.312 288.304 194.363 289.163C194.414 290.022 194.795 290.828 195.426 291.413C196.078 291.98 196.926 292.268 197.789 292.217C198.651 292.166 199.46 291.779 200.04 291.139L203.066 287.038C203.624 286.382 203.906 285.536 203.855 284.677C203.804 283.818 203.423 283.012 202.792 282.427C202.14 281.861 201.292 281.572 200.429 281.624C199.567 281.675 198.758 282.062 198.178 282.701Z" fill="#FF3A00"/>
<path d="M185.461 308.398L183.046 311.796C182.494 312.459 182.205 313.302 182.234 314.164C182.271 314.809 182.499 315.428 182.889 315.943C183.279 316.458 183.813 316.846 184.423 317.057C185.034 317.269 185.694 317.294 186.319 317.131C186.944 316.967 187.507 316.622 187.935 316.139L190.349 312.741C190.901 312.077 191.191 311.235 191.165 310.372C191.128 309.727 190.9 309.107 190.51 308.592C190.12 308.076 189.586 307.688 188.974 307.476C188.363 307.265 187.703 307.24 187.077 307.404C186.452 307.568 185.889 307.914 185.461 308.398Z" fill="#FF3A00"/>
<path d="M168.185 328.273L164.663 331.946C164.093 332.596 163.802 333.445 163.853 334.308C163.905 335.171 164.294 335.979 164.938 336.557C165.593 337.117 166.44 337.401 167.3 337.35C168.161 337.299 168.968 336.916 169.552 336.283L173.073 332.609C173.644 331.959 173.935 331.111 173.884 330.248C173.832 329.385 173.443 328.577 172.799 327.999C172.144 327.438 171.297 327.154 170.437 327.205C169.576 327.256 168.769 327.639 168.185 328.273Z" fill="#FF3A00"/>
<path d="M149.532 344.543L145.163 348.057C144.458 348.55 143.97 349.295 143.801 350.138C143.632 350.98 143.795 351.856 144.255 352.582C144.741 353.294 145.487 353.787 146.333 353.957C147.18 354.126 148.059 353.958 148.782 353.489L153.152 349.974C153.856 349.482 154.344 348.737 154.513 347.894C154.682 347.051 154.52 346.176 154.06 345.45C153.573 344.738 152.827 344.245 151.981 344.075C151.135 343.906 150.256 344.074 149.532 344.543Z" fill="#FF3A00"/>
<path d="M128.859 358.753L126.407 361.513C125.831 362.161 125.537 363.01 125.588 363.875C125.64 364.74 126.033 365.549 126.681 366.124C127.329 366.699 128.179 366.993 129.045 366.941C129.91 366.89 130.72 366.497 131.295 365.849L133.747 363.089C134.323 362.441 134.617 361.592 134.566 360.727C134.515 359.862 134.121 359.053 133.473 358.478C132.825 357.903 131.975 357.609 131.109 357.661C130.244 357.712 129.434 358.105 128.859 358.753Z" fill="#FF3A00"/>
<path d="M108.218 375.731L106.954 376.472C106.238 376.956 105.742 377.702 105.572 378.549C105.402 379.395 105.572 380.275 106.046 380.997C106.539 381.701 107.284 382.188 108.128 382.357C108.971 382.526 109.847 382.364 110.574 381.904L111.838 381.162C112.553 380.678 113.049 379.932 113.219 379.086C113.389 378.239 113.219 377.36 112.746 376.638C112.253 375.933 111.507 375.446 110.663 375.277C109.82 375.108 108.944 375.271 108.217 375.731" fill="#FF3A00"/>
<path d="M86.1452 393.656C90.3424 393.406 89.9552 386.894 85.7579 387.144C81.5607 387.393 81.9479 393.906 86.1452 393.656Z" fill="#FF3A00"/>
<path d="M209.464 136.011C209.458 135.92 209.325 135.876 209.255 135.802C209.153 135.656 209.04 135.519 208.917 135.39C189.566 116.19 157.659 145.405 172.174 167.311C179.363 178.229 194.943 178.897 204.82 171.2C215.294 163.009 217.687 146.489 209.464 136.011Z" fill="white"/>
<path d="M205.544 146.636L205.469 146.51C205.39 146.289 205.289 146.076 205.17 145.874C203.572 143.059 200.994 140.93 197.927 139.893C194.859 138.856 191.517 138.982 188.537 140.249C182.327 142.932 177.68 151.43 180.085 158.031C182.695 165.196 192.241 167.543 198.799 164.761C202.094 163.245 204.653 160.487 205.917 157.09C207.182 153.693 207.047 149.934 205.544 146.636Z" fill="#04294F"/>
<path d="M131.8 216.852C120.381 191.886 103.413 164.463 73.8741 159.609C64.6273 158.094 49.8627 159.259 49.1017 171.539C48.7926 176.681 52.2368 180.267 56.2132 182.88C58.2677 184.234 60.2964 185.552 62.4526 186.835C58.1874 186.566 53.9125 187.181 49.8962 188.64C42.3361 191.491 36.3579 197.758 35.8518 206.075C35.5203 209.731 36.4849 213.387 38.5771 216.405C40.6694 219.422 43.7562 221.609 47.2982 222.583C51.7396 223.822 56.4275 223.465 60.9789 223.429C57.2966 225.071 53.9914 227.452 51.2689 230.424C44.5108 237.963 43.1617 250.055 53.2014 255.445C58.701 258.398 64.809 257.944 70.7522 256.897C77.8453 255.652 84.4221 254.503 91.6081 255.657C98.6676 256.755 105.41 259.347 111.385 263.262C117.359 267.176 122.427 272.322 126.248 278.354C128.501 281.906 133.935 278.289 131.684 274.737C130.832 273.389 129.892 272.098 128.928 270.835L128.579 220.965C130.841 220.974 132.911 219.27 131.8 216.852Z" fill="#FFB400"/>
<path d="M72.4826 172.511C91.3622 176.289 102.084 193.611 112.85 207.911C122.794 221.161 134.598 234.001 151.554 237.345C156.916 238.412 158.684 230.111 153.323 229.045C134.421 225.306 123.686 207.998 112.92 193.699C102.976 180.448 91.1939 167.542 74.2513 164.197C68.9545 163.113 67.1198 171.418 72.4819 172.498L72.4826 172.511Z" fill="#FFC333"/>
<path d="M59.9831 202.548C58.7592 203.964 58.5801 204.449 59.4458 204.005C59.8142 203.869 60.2064 203.81 60.5984 203.831C61.8411 203.731 63.0883 203.697 64.3346 203.727L73.0562 203.47C78.5148 203.315 78.0114 194.849 72.5528 195.004C66.6241 195.173 50.699 193.101 51.5104 203.052C51.9645 208.488 60.438 207.998 59.9831 202.548Z" fill="#FFC333"/>
<path d="M64.5146 244.394C67.4411 241.925 70.8527 240.097 74.5295 239.027C79.7632 237.487 77.0356 229.454 71.7902 230.995C67.4058 232.275 63.3282 234.435 59.806 237.341C58.8941 237.986 58.2638 238.955 58.0443 240.05C57.8248 241.144 58.0328 242.281 58.6255 243.228C59.2566 244.157 60.2277 244.801 61.3296 245.021C62.4315 245.242 63.576 245.021 64.5167 244.407L64.5146 244.394Z" fill="#FFC333"/>
<path d="M286.383 174.719C285.524 174.615 284.703 174.304 283.991 173.814C283.278 173.324 282.695 172.668 282.291 171.903C281.273 170.069 278.561 171.89 279.573 173.712C280.203 174.832 281.081 175.793 282.14 176.521C283.199 177.249 284.411 177.724 285.683 177.91C287.755 178.205 288.441 175.015 286.356 174.72L286.383 174.719Z" fill="#04294F"/>
<path d="M226.416 242.88L252.973 232.151C261.148 228.829 270.584 226.242 278.163 221.713C284.642 217.838 286.208 208.739 288.631 202.203L298.317 176.126C301.214 168.321 289.649 162.356 286.68 170.283L278.313 192.805C275.922 199.234 274.579 208.986 268.076 212.026C253.211 218.988 237.422 224.476 222.222 230.647C214.48 233.787 218.62 246.18 226.436 242.997L226.416 242.88Z" fill="#04294F"/>
<path d="M221.351 201.356L253.163 186.394C258.253 184 260.437 182.471 263.75 178.327L280.412 157.586C285.647 151.04 275.909 142.352 270.647 148.926L254.996 168.456C253.999 169.866 252.917 171.214 251.756 172.492C251.479 172.878 251.182 173.249 250.866 173.604C253.049 171.827 246.707 175.158 246.707 175.158L217.137 189.107C209.63 192.651 213.739 204.994 221.351 201.457L221.351 201.356Z" fill="#04294F"/>
<path d="M337.548 182.069L326.895 167.906C326.443 167.303 325.792 166.879 325.057 166.708C324.722 166.551 324.359 166.46 323.989 166.443C323.619 166.425 323.249 166.481 322.901 166.606C322.552 166.731 322.232 166.924 321.958 167.173C321.684 167.423 321.462 167.723 321.305 168.058C321.275 168.119 321.249 168.181 321.224 168.243C321.051 168.512 320.922 168.806 320.844 169.116L314.234 184.226C313.987 184.74 313.878 185.308 313.915 185.876C313.953 186.444 314.137 186.993 314.45 187.469C314.763 187.944 315.193 188.332 315.7 188.592C316.206 188.853 316.772 188.978 317.341 188.956L335.01 187.147C337.351 186.904 339.111 184.146 337.548 182.069Z" fill="#EAE2C2"/>
<path d="M325.034 166.748L265.11 140.575C264.529 140.288 263.859 140.239 263.243 140.439C262.626 140.64 262.113 141.073 261.812 141.647L254.328 158.77C254.04 159.35 253.991 160.02 254.191 160.636C254.392 161.252 254.825 161.765 255.399 162.066L315.324 188.238C315.808 188.473 316.355 188.546 316.884 188.446C317.412 188.346 317.895 188.079 318.26 187.685C320.26 185.226 323.449 182.54 324.754 179.652C326.059 176.764 325.878 172.579 326.319 169.455C326.318 169.36 326.313 169.264 326.302 169.169C326.42 168.68 326.357 168.165 326.124 167.72C325.89 167.275 325.503 166.929 325.034 166.748Z" fill="#FFB400"/>
<path d="M262.565 154.099L324.785 181.272C326.707 182.112 328.193 179.201 326.261 178.361L264.041 151.188C262.119 150.348 260.632 153.26 262.565 154.099Z" fill="#FFD266"/>
<path d="M265.23 140.412C259.14 138.082 252.134 140.158 249.349 146.337C248.075 149.232 247.981 152.51 249.088 155.474C250.195 158.437 252.415 160.852 255.276 162.205C256.051 162.586 256.943 162.649 257.764 162.38C258.584 162.111 259.266 161.533 259.665 160.768L266.656 144.785C266.778 144.492 266.861 144.183 266.901 143.868C267.155 143.225 267.143 142.506 266.868 141.871C266.593 141.237 266.076 140.737 265.432 140.483C265.366 140.456 265.298 140.433 265.23 140.412Z" fill="#FF3A00"/>
<path d="M337.548 182.067L335.218 178.977C334.93 178.513 334.512 178.142 334.016 177.912C333.785 177.808 333.544 177.73 333.296 177.68C332.921 177.572 332.529 177.538 332.141 177.581C331.753 177.624 331.378 177.744 331.036 177.932L330.744 178.093C330.263 178.382 329.883 178.81 329.654 179.321L328.121 182.811C327.874 183.324 327.763 183.892 327.801 184.461C327.838 185.029 328.022 185.578 328.335 186.054C328.648 186.531 329.079 186.918 329.586 187.178C330.093 187.439 330.659 187.564 331.228 187.541L335.129 187.139C335.69 187.081 336.228 186.88 336.689 186.555C337.151 186.23 337.521 185.791 337.764 185.282C338.007 184.773 338.114 184.209 338.077 183.646C338.039 183.083 337.857 182.54 337.548 182.067Z" fill="#3B301B"/>
<path d="M262.302 150.642L324.522 177.815L262.302 150.642Z" fill="#E5A024"/>
<path d="M289.888 178.668C290.895 176.744 292.011 174.88 293.232 173.084C293.507 172.755 293.646 172.333 293.621 171.904C293.595 171.476 293.407 171.073 293.095 170.779C292.769 170.494 292.345 170.349 291.913 170.374C291.481 170.4 291.077 170.595 290.788 170.916C289.397 172.93 288.124 175.021 286.974 177.181C286.877 177.372 286.819 177.581 286.803 177.794C286.786 178.008 286.812 178.223 286.879 178.426C287.014 178.837 287.307 179.178 287.693 179.374C288.079 179.569 288.528 179.603 288.939 179.468C289.351 179.334 289.692 179.041 289.887 178.655L289.888 178.668Z" fill="#04294F"/>
<path d="M293.441 180.346L297.272 175.255C298.481 173.589 296.101 171.404 294.829 173.087L290.994 178.184C289.785 179.851 292.165 182.036 293.439 180.352" fill="#04294F"/>
<path d="M296.15 182.125C298.426 181.403 300.422 179.992 301.862 178.087C303.071 176.42 300.678 174.236 299.417 175.919C298.345 177.385 296.834 178.472 295.102 179.025C294.721 179.184 294.415 179.482 294.245 179.859C294.075 180.235 294.055 180.662 294.188 181.053C294.32 181.444 294.597 181.77 294.961 181.965C295.325 182.161 295.749 182.211 296.149 182.106L296.15 182.125Z" fill="#04294F"/>
<path d="M240.991 71.9598L242.902 71.5422C243.302 71.4549 236.797 72.0147 236.397 72.1017L234.486 72.5193C234.087 72.6065 240.592 72.0467 240.991 71.9598Z" fill="#66ADF5"/>
<path d="M256.906 72.5063L257.974 72.0727C258.142 72.0046 257.57 72.0067 257.401 72.0755L256.333 72.509C256.165 72.5772 256.737 72.5751 256.906 72.5063Z" fill="#66ADF5"/>
<path d="M272.496 83.046L273.008 81.7212C273.111 81.4528 272.939 80.8057 272.835 81.0727L272.324 82.3975C272.221 82.6658 272.392 83.3129 272.496 83.046Z" fill="#66ADF5"/>
<path d="M184.066 358.19C179.125 351.439 168.224 358.623 173.204 365.372C181.461 376.644 190.613 396.138 176.686 407.213C175.918 407.801 175.29 408.553 174.848 409.413C174.406 410.274 174.161 411.222 174.13 412.188C173.617 412.94 173.304 413.81 173.221 414.716C173.137 415.622 173.286 416.534 173.653 417.367L177.948 426.261C179.438 429.322 182.682 431.717 186.235 430.33C189.214 429.172 191.891 425.34 190.308 422.049L187.041 415.243C203.124 399.32 196.453 375.118 184.066 358.196" fill="#04294F"/>
<path d="M220.885 430.282C231.358 416.785 237.064 399.663 234.513 382.496C232.076 366.158 221.22 344.402 202.553 342.844C194.284 342.159 191.497 354.912 199.832 355.606C213.99 356.79 221.068 375.257 221.947 387.425C222.999 402.041 216.908 415.762 207.14 426.368C206.349 427.15 205.8 428.143 205.559 429.228C205.317 430.313 205.393 431.445 205.778 432.488C205.993 433.854 206.721 435.087 207.815 435.935C209.117 436.921 210.33 438.021 211.437 439.222L211.579 439.41C211.806 439.71 212.047 440.01 212.261 440.311C212.816 441.075 213.309 441.882 213.79 442.703C214.266 443.416 214.878 444.027 215.59 444.503C216.303 444.98 217.103 445.311 217.944 445.478C218.785 445.645 219.65 445.645 220.491 445.478C221.332 445.311 222.132 444.98 222.845 444.504C224.252 443.517 225.224 442.026 225.56 440.341C225.896 438.656 225.569 436.907 224.649 435.457C223.571 433.61 222.311 431.877 220.886 430.282" fill="#04294F"/>
<mask id="mask0_234_1611" style="mask-type:alpha" maskUnits="userSpaceOnUse" x="5" y="431" width="104" height="110">
<path d="M20.4126 540.352C16.4032 540.619 12.3762 540.383 8.42535 539.651C7.67044 539.531 6.99047 539.126 6.52594 538.519C6.06141 537.913 5.84782 537.151 5.9293 536.391C5.95083 535.588 6.26627 534.821 6.81593 534.234C7.36559 533.647 8.11135 533.282 8.91214 533.208C9.20409 533.192 9.49689 533.211 9.78416 533.266C13.1233 533.85 16.5206 534.031 19.903 533.805C31.7775 532.838 43.2171 528.898 53.1656 522.347C62.3108 516.367 74.5372 504.504 78.9023 490.754C78.2264 490.848 77.5449 490.914 76.8801 490.954C71.694 491.269 66.5345 490.002 62.0854 487.322C58.6183 485.179 55.8821 482.038 54.2373 478.311C52.5664 474.589 52.4225 470.36 53.8365 466.533C54.8736 463.875 56.6724 461.582 59.0075 459.941C61.3427 458.3 64.1104 457.384 66.9641 457.307C68.5728 457.212 70.1869 457.345 71.7582 457.702C75.7302 458.652 79.2491 460.95 81.7149 464.203C84.1936 467.44 85.824 471.244 86.4582 475.271C86.7635 477.305 86.8859 479.362 86.8237 481.418C103.22 472.758 104.45 451.567 98.655 435.542C98.4721 435.106 98.3985 434.632 98.4405 434.162C98.4824 433.691 98.6388 433.237 98.8959 432.841C99.2093 432.395 99.6206 432.026 100.098 431.764C100.576 431.501 101.108 431.351 101.652 431.325C102.343 431.263 103.035 431.437 103.613 431.819C104.191 432.202 104.622 432.77 104.834 433.43C106.701 438.571 107.829 443.951 108.185 449.408C108.573 454.78 108.072 460.179 106.701 465.388C103.668 476.561 96.6302 484.669 86.3476 488.832L85.9504 488.973C85.0511 492.92 83.6606 496.74 81.8114 500.342C79.9251 504.03 77.6889 507.529 75.1335 510.791C70.1763 517.141 64.2732 522.694 57.6303 527.255C46.5689 534.768 33.7441 539.281 20.4126 540.352ZM67.2944 463.809C66.146 463.855 65.0187 464.132 63.9806 464.626C62.9425 465.119 62.015 465.817 61.2542 466.677C60.5334 467.538 59.9971 468.536 59.6786 469.612C59.36 470.688 59.266 471.817 59.4022 472.931C60.1867 481.415 68.7371 484.726 76.8526 484.244C78.0146 484.176 79.1702 484.024 80.3105 483.791C80.6177 480.739 80.3995 477.658 79.6654 474.68C78.2629 469.132 74.7835 465.176 70.3517 464.099C69.353 463.849 68.3223 463.752 67.2944 463.809Z" fill="#05C3FA"/>
</mask>
<g mask="url(#mask0_234_1611)">
<rect x="-34" y="395.821" width="192" height="165" fill="#00AEE0"/>
<rect x="-34" y="395.821" width="192" height="165" fill="#FFB400"/>
</g>
</svg>
