<svg width="57" height="108" viewBox="0 0 57 108" fill="none" xmlns="http://www.w3.org/2000/svg">
<path d="M48.8988 10.7809C47.1022 9.73962 45.3635 8.64038 43.567 7.59912C40.7273 5.97941 37.8876 4.3597 35.0478 2.73999C34.874 2.62428 34.7001 2.56649 34.5842 2.45072C33.9467 2.10367 33.4829 1.58269 33.714 0.829458C33.8873 0.192124 34.6401 -0.156034 35.5671 0.132867C36.5522 0.479649 37.5372 0.884358 38.4066 1.40501C44.2019 4.70226 49.8813 7.9996 55.6187 11.2969C57.3573 12.2803 57.4163 13.6705 55.6213 14.5987C53.0157 15.991 50.3521 17.2676 47.6305 18.5441C45.7775 19.4145 43.8665 20.1111 42.0135 20.9236C41.666 21.0397 41.3186 21.2717 40.9711 21.3299C40.1024 21.5623 39.407 21.2153 39.1747 20.5203C38.8845 19.7096 39.3475 19.1879 40.3319 18.7816C43.4589 17.5047 46.5859 16.1699 49.713 14.8351C49.9446 14.7191 50.0603 14.5452 50.4076 14.2553C49.5383 13.7926 48.7274 13.8511 47.9745 13.9676C44.3253 14.318 40.7341 14.6105 37.143 15.1347C32.5094 15.8335 27.9341 16.9957 23.533 18.679C14.9045 22.0456 8.42122 27.7276 4.72068 36.3037C2.17652 42.1564 2.06544 48.1809 4.32936 54.2035C4.50351 54.6668 4.67766 55.13 4.90968 55.5353C4.96775 55.7091 5.14162 55.8248 5.43149 56.1142C5.83656 55.5925 6.24173 55.1867 6.58892 54.723C10.4084 50.0859 15.272 47.1857 21.1798 46.2541C28.0723 45.206 33.9246 47.3447 38.2156 52.9023C41.3468 56.8967 41.5247 62.0521 39.0371 66.109C37.88 67.9635 36.317 69.2971 34.4062 70.2834C28.1527 73.6481 21.8385 73.3635 15.5222 70.4721C11.9873 68.8529 9.089 66.3644 6.65368 63.3541C6.36377 63.0068 6.07391 62.7174 5.784 62.37C5.72602 62.3122 5.55225 62.3123 5.26252 62.1967C5.03141 62.9499 4.74237 63.7032 4.56918 64.4564C3.2986 69.2653 3.76578 74.015 5.62311 78.6476C7.36436 82.9908 9.91617 86.812 12.9312 90.401C18.3235 96.8267 24.9888 101.513 33.1583 103.766C35.1283 104.344 37.0982 104.806 39.1834 104.572C39.9363 104.456 40.5737 104.687 40.7481 105.498C40.9224 106.135 40.3437 106.889 39.4169 106.947C38.0268 107.064 36.5786 107.065 35.1882 106.835C29.105 105.797 23.6001 103.426 18.6733 99.6648C12.8192 95.2091 8.23858 89.7096 4.75788 83.2825C1.91528 78.0134 0.462698 72.4535 1.44273 66.4863C1.78864 64.4006 2.48212 62.3147 3.17563 60.2867C3.46463 59.4755 3.52205 58.8383 3.17385 58.0276C-2.16415 47.0257 -0.434412 36.8292 6.97276 27.3812C11.3129 21.8747 16.9867 17.9891 23.7044 15.7246C31.5804 13.0537 39.6889 11.4254 48.0302 11.1871C48.2619 11.1869 48.4936 11.2446 48.7833 11.2444C48.7831 11.0706 48.8409 10.8968 48.8988 10.7809ZM8.96494 55.9955C8.44414 56.6911 8.03902 57.1548 7.69188 57.6764C6.82398 58.9515 6.82403 59.0094 7.69394 60.2832C9.3757 62.6568 11.4627 64.6826 13.839 66.3606C17.0848 68.6751 20.7351 69.8887 24.7322 70.0014C28.2658 70.0565 31.567 69.2429 34.4616 67.0394C37.7035 64.546 38.8591 60.7798 37.292 56.9579C36.8857 55.9155 36.2476 54.8154 35.4939 53.9471C32.4208 50.2422 28.3066 48.5077 23.5568 48.7431C17.5906 49.0375 12.7848 51.8218 8.96494 55.9955Z" fill="#EA4C8A"/>
</svg>
