<svg width="110" height="40" viewBox="0 0 110 40" fill="none" xmlns="http://www.w3.org/2000/svg">
<path d="M105.877 9.17048H104.941V12.1382H104.584V9.17048H103.648V8.79468H105.877V9.17048Z" fill="#0076EE"/>
<path d="M108.774 8.79468L107.549 10.9653L106.329 8.79468H105.877V12.1382H106.305V9.55298L107.431 11.5363H107.673L108.794 9.55298V12.1382H109.221V8.79468H108.774Z" fill="#0076EE"/>
<path d="M9.62116 30.926C7.79353 30.9247 5.97824 30.6266 4.24619 30.0433C2.81874 29.583 1.48559 28.87 0.310255 27.9382C0.155849 27.8141 0.0508082 27.639 0.0140329 27.4443C-0.0227424 27.2496 0.0111621 27.0482 0.109646 26.8764L0.833174 25.6232C1.15112 25.071 1.67272 24.6653 2.2862 24.4931C2.89968 24.3208 3.55622 24.3957 4.11513 24.7018C4.69141 25.0162 5.2858 25.2962 5.8952 25.5403C7.02476 26.0118 8.2341 26.2628 9.458 26.2799C10.1392 26.3193 10.8173 26.1624 11.4119 25.8278C11.6337 25.6899 11.8148 25.4955 11.9365 25.2644C12.0583 25.0334 12.1163 24.7741 12.1047 24.5132C12.1004 24.2269 12.0167 23.9475 11.863 23.7059C11.7093 23.4644 11.4915 23.2702 11.2341 23.145C10.2569 22.6576 9.22394 22.2911 8.15806 22.0537C6.71903 21.6427 5.50468 21.2459 4.51501 20.8634C3.65362 20.55 2.83848 20.1217 2.09166 19.5902C1.51519 19.1793 1.05455 18.6265 0.754268 17.9854C0.469657 17.3088 0.332866 16.5793 0.353051 15.8456C0.336586 14.8145 0.553768 13.793 0.988311 12.8578C1.41028 11.9677 2.02196 11.1807 2.78041 10.5522C3.5841 9.90104 4.50014 9.40245 5.48328 9.08104C6.58107 8.7164 7.73156 8.53564 8.88827 8.54608C10.4126 8.53489 11.9297 8.75632 13.3873 9.20274C14.0751 9.421 14.7371 9.71385 15.3612 10.0761C15.648 10.2452 15.8977 10.4705 16.0953 10.7385C16.2928 11.0065 16.4342 11.3117 16.5109 11.6357C16.5876 11.9597 16.598 12.2959 16.5416 12.624C16.4851 12.9521 16.363 13.2655 16.1824 13.5452L15.4067 14.7569C15.3429 14.8565 15.2601 14.9425 15.1629 15.0099C15.0657 15.0773 14.9562 15.1248 14.8405 15.1497C14.7249 15.1746 14.6055 15.1763 14.4892 15.1548C14.3729 15.1333 14.262 15.089 14.1629 15.0244C13.371 14.4993 12.532 14.0488 11.6567 13.679C10.7795 13.3109 9.83948 13.1157 8.88827 13.1039C8.26292 13.084 7.6438 13.2333 7.09617 13.5359C6.85756 13.6735 6.66236 13.8753 6.53279 14.1183C6.40322 14.3614 6.34449 14.6359 6.36328 14.9107C6.35296 15.1889 6.42222 15.4643 6.56294 15.7045C6.70365 15.9447 6.90998 16.1398 7.15769 16.2668C8.09869 16.712 9.08962 17.0429 10.1093 17.2525C11.4131 17.5934 12.6976 18.0046 13.957 18.4842C14.8644 18.8207 15.7199 19.2836 16.498 19.8591C17.1079 20.3157 17.5965 20.915 17.921 21.6044C18.236 22.3435 18.3888 23.1416 18.369 23.9448C18.4051 24.9196 18.2099 25.8892 17.7994 26.7741C17.3889 27.659 16.7748 28.4342 16.0072 29.0362C14.1567 30.3818 11.8991 31.0487 9.61448 30.9246" fill="#0076EE"/>
<path d="M20.4915 29.6928V11.42C20.4901 11.0978 20.5522 10.7785 20.6742 10.4803C20.7963 10.182 20.9759 9.9108 21.2028 9.68203C21.4297 9.45326 21.6995 9.27144 21.9967 9.14695C22.2939 9.02247 22.6127 8.95777 22.9349 8.95654H26.1914C26.4083 8.9576 26.6158 9.04467 26.7685 9.19863C26.9212 9.35259 27.0066 9.56086 27.0059 9.7777V28.0505C27.0087 28.7011 26.7531 29.3262 26.2952 29.7884C25.8372 30.2507 25.2145 30.5121 24.5638 30.5153H21.3059C21.1985 30.5147 21.0921 30.4931 20.993 30.4514C20.8939 30.4098 20.804 30.3491 20.7284 30.2727C20.6527 30.1963 20.5929 30.1058 20.5522 30.0063C20.5116 29.9068 20.491 29.8003 20.4915 29.6928Z" fill="#0076EE"/>
<path d="M39.6683 39.6709C37.6442 39.7238 35.632 39.3459 33.765 38.5622C32.1864 37.8429 30.7745 36.8031 29.6191 35.509C29.583 35.4693 29.5629 35.4176 29.5629 35.3639C29.5629 35.3102 29.583 35.2584 29.6191 35.2188L31.3938 33.4093C31.6136 33.1841 31.8763 33.0054 32.1665 32.8839C32.4567 32.7624 32.7684 32.7004 33.083 32.7018C33.5963 32.7033 34.097 32.8615 34.518 33.1552C34.9598 33.4576 35.4269 33.7211 35.9142 33.9429C37.0897 34.4782 38.3673 34.7519 39.6589 34.7453C40.4179 34.7482 41.173 34.6373 41.899 34.4163C42.583 34.2069 43.2191 33.8652 43.7714 33.4106C44.3325 32.9322 44.7717 32.327 45.0526 31.6453C45.3834 30.8165 45.5431 29.9294 45.522 29.0373V26.943C44.8924 28.1227 43.9107 29.0768 42.7135 29.6726C41.4885 30.288 40.1351 30.6047 38.7642 30.5967C37.4281 30.6102 36.1069 30.3155 34.9032 29.7355C33.7537 29.1718 32.7347 28.3741 31.9114 27.3937C31.0643 26.3701 30.4096 25.2015 29.9789 23.9446C29.5108 22.5842 29.2765 21.1544 29.2861 19.7157C29.2732 18.2133 29.5212 16.72 30.019 15.3024C30.4729 14.0084 31.1636 12.8102 32.0559 11.769C32.9436 10.7424 34.0448 9.92211 35.2825 9.3654C36.5202 8.80868 37.8645 8.52899 39.2216 8.54586C40.7074 8.51219 42.1754 8.87356 43.4758 9.59303C44.6805 10.2895 45.6834 11.2873 46.386 12.4885V10.806C46.3846 10.3174 46.5771 9.84812 46.9214 9.50133C47.2657 9.15454 47.7336 8.95856 48.2222 8.95643H51.8399C51.8672 8.95643 51.8943 8.96184 51.9195 8.97234C51.9447 8.98284 51.9677 8.99823 51.9869 9.01762C52.0062 9.03701 52.0214 9.06002 52.0318 9.08533C52.0421 9.11063 52.0473 9.13773 52.0472 9.16507V29.036C52.0693 30.5634 51.7566 32.0772 51.1311 33.4708C50.5384 34.7575 49.6711 35.8988 48.59 36.8143C47.4374 37.7666 46.1099 38.4848 44.6822 38.9287C43.0601 39.4373 41.3681 39.6877 39.6683 39.6709ZM40.686 14.1268C40.0121 14.1202 39.3472 14.2825 38.7522 14.5989C38.1682 14.9149 37.6556 15.3479 37.2463 15.8707C36.8144 16.4246 36.4835 17.0503 36.2686 17.719C36.0386 18.4145 35.9217 19.1424 35.9223 19.8749C35.9152 20.6244 36.0462 21.3688 36.3088 22.0709C36.5525 22.7168 36.919 23.3095 37.388 23.8162C37.841 24.3023 38.3867 24.6929 38.9929 24.965C39.6284 25.2434 40.3159 25.3833 41.0097 25.3756C41.9719 25.3878 42.913 25.0931 43.6965 24.5344C44.4772 23.9791 45.1073 23.2382 45.5301 22.3785V17.8675C45.1415 16.7845 44.4487 15.8367 43.5347 15.1379C42.7226 14.4974 41.7215 14.1434 40.6874 14.1308L40.686 14.1268Z" fill="#0076EE"/>
<path d="M64.7083 39.6709C62.6842 39.7238 60.672 39.3459 58.805 38.5622C57.4167 37.931 56.1564 37.0497 55.0871 35.9624C54.9356 35.8066 54.8509 35.5979 54.8509 35.3806C54.8509 35.1633 54.9356 34.9546 55.0871 34.7988L56.4472 33.412C56.667 33.1868 56.9297 33.0082 57.2199 32.8867C57.5101 32.7651 57.8217 32.7032 58.1363 32.7045C58.6497 32.7057 59.1504 32.8639 59.5713 33.1578C60.0131 33.4602 60.4803 33.7238 60.9676 33.9456C62.143 34.4808 63.4207 34.7546 64.7123 34.748C65.4712 34.7509 66.2263 34.64 66.9524 34.419C67.6363 34.2095 68.2725 33.8678 68.8247 33.4133C69.3859 32.9348 69.825 32.3297 70.106 31.6479C70.4368 30.8192 70.5965 29.9321 70.5754 29.04V26.943C69.9457 28.1227 68.964 29.0768 67.7669 29.6726C66.5418 30.288 65.1885 30.6047 63.8176 30.5967C62.4769 30.6123 61.1509 30.3175 59.9431 29.7355C58.7937 29.1718 57.7747 28.3741 56.9514 27.3937C56.1043 26.3701 55.4495 25.2015 55.0189 23.9446C54.5507 22.5842 54.3165 21.1544 54.3261 19.7157C54.3132 18.2133 54.5612 16.72 55.059 15.3024C55.5129 14.0084 56.2036 12.8102 57.0958 11.769C57.9836 10.7424 59.0848 9.92211 60.3225 9.3654C61.5602 8.80868 62.9045 8.52899 64.2616 8.54586C65.7473 8.51219 67.2154 8.87356 68.5158 9.59303C69.7206 10.2899 70.7238 11.2876 71.4273 12.4885V11.4186C71.4255 10.7685 71.6816 10.1442 72.1394 9.6827C72.5972 9.22115 73.2193 8.95997 73.8694 8.95643H76.2767C76.4935 8.9575 76.7011 9.04456 76.8538 9.19852C77.0065 9.35248 77.0919 9.56075 77.0912 9.77759V29.036C77.1133 30.5634 76.8006 32.0772 76.175 33.4708C75.5824 34.7575 74.7151 35.8988 73.634 36.8143C72.4814 37.7666 71.1539 38.4848 69.7261 38.9287C68.1028 39.4377 66.4095 39.6881 64.7083 39.6709ZM65.726 14.1268C65.0521 14.1202 64.3872 14.2825 63.7921 14.5989C63.2082 14.9149 62.6955 15.3479 62.2862 15.8707C61.8544 16.4246 61.5234 17.0503 61.3086 17.719C61.0786 18.4145 60.9616 19.1424 60.9622 19.8749C60.9551 20.6244 61.0862 21.3688 61.3487 22.0709C61.5925 22.7168 61.959 23.3095 62.428 23.8162C62.881 24.3023 63.4267 24.6929 64.0329 24.965C64.6684 25.2434 65.3559 25.3833 66.0497 25.3756C67.0119 25.3878 67.953 25.0931 68.7365 24.5344C69.5171 23.9791 70.1473 23.2382 70.57 22.3785V17.8675C70.1815 16.7845 69.4886 15.8367 68.5747 15.1379C67.7625 14.4974 66.7615 14.1434 65.7274 14.1308L65.726 14.1268Z" fill="#0076EE"/>
<path d="M80.7101 35.4529C80.7091 35.2637 80.7494 35.0766 80.8283 34.9046C80.9072 34.7327 81.0227 34.58 81.1669 34.4575C81.311 34.3349 81.4802 34.2453 81.6626 34.195C81.8449 34.1447 82.0361 34.1349 82.2227 34.1663H82.2361C82.6593 34.2437 83.0884 34.2849 83.5186 34.2894C83.8672 34.3072 84.215 34.242 84.5336 34.0993C84.8521 33.9565 85.1322 33.7402 85.3509 33.4682C85.9329 32.5687 86.334 31.5643 86.5318 30.5113L78.8097 10.0706C78.7621 9.94674 78.7452 9.81319 78.7606 9.68139C78.776 9.5496 78.8231 9.4235 78.8979 9.31394C78.9728 9.20437 79.0731 9.11461 79.1903 9.05236C79.3074 8.99011 79.438 8.95723 79.5707 8.95654H83.3154C83.8369 8.95798 84.3444 9.12619 84.7635 9.43659C85.1827 9.74699 85.4916 10.1833 85.6451 10.6818L90.0759 24.8889L93.8687 10.7767C94.0062 10.2572 94.311 9.79739 94.736 9.4684C95.1609 9.1394 95.6824 8.95952 96.2198 8.95654H99.3333C99.4626 8.95721 99.5899 8.98846 99.7049 9.04774C99.8198 9.10703 99.9191 9.19266 99.9946 9.29765C100.07 9.40264 100.12 9.52401 100.139 9.65184C100.159 9.77966 100.148 9.91032 100.108 10.0331L92.3147 34.0045C91.7796 35.7349 90.7109 37.2517 89.2614 38.3377C87.7573 39.4589 85.9211 40.0442 84.0456 40C83.494 39.9971 82.9436 39.947 82.4006 39.8503C82.0247 39.7855 81.6534 39.6961 81.2892 39.5828C81.1212 39.5301 80.9745 39.4251 80.8703 39.2832C80.7661 39.1413 80.71 38.9698 80.7101 38.7937V35.4529Z" fill="#0076EE"/>
<path d="M24.5718 0.0214498C25.047 0.0959081 25.5001 0.273391 25.8994 0.541457C26.2988 0.809523 26.6346 1.16169 26.8835 1.57326C27.1323 1.98483 27.2882 2.44585 27.34 2.924C27.3919 3.40215 27.3386 3.88586 27.1838 4.34122C27.1146 4.8227 26.9466 5.28469 26.6904 5.69817C26.4342 6.11165 26.0952 6.46771 25.6949 6.74399C25.2945 7.02027 24.8414 7.21081 24.3639 7.30365C23.8864 7.39648 23.3949 7.38962 22.9202 7.28348C22.0287 7.01224 21.269 6.42117 20.7869 5.62383C20.3048 4.82648 20.1343 3.8791 20.3082 2.96371C20.5493 2.04427 21.1121 1.24177 21.8944 0.7019C22.6767 0.162034 23.6267 -0.0793952 24.5718 0.0214498Z" fill="#0076EE"/>
</svg>
